<?xml version="1.0" standalone="no"?>
<!DOCTYPE svg PUBLIC "-//W3C//DTD SVG 20010904//EN"
 "http://www.w3.org/TR/2001/REC-SVG-20010904/DTD/svg10.dtd">
<svg version="1.0" xmlns="http://www.w3.org/2000/svg"
 width="700.000000pt" height="700.000000pt" viewBox="0 0 700.000000 700.000000"
 preserveAspectRatio="xMidYMid meet">
<metadata>
Created by potrace 1.14, written by Peter Selinger 2001-2017
</metadata>
<g transform="translate(0.000000,700.000000) scale(0.100000,-0.100000)"
fill="#000000" stroke="none">
<path d="M2372 4657 c-395 -394 -655 -648 -660 -641 -4 6 -32 20 -62 32 l-55
21 53 0 c46 1 53 3 49 19 -3 9 -11 48 -18 85 -12 65 -14 69 -53 86 l-41 19 35
-2 c29 -1 35 2 33 19 -3 42 -68 355 -73 355 -5 0 -31 -122 -45 -205 -2 -11 -6
-34 -10 -52 -7 -29 -6 -31 16 -27 23 5 23 5 -3 -12 -26 -17 -32 -36 -53 -162
-6 -35 -8 -35 70 -15 13 3 6 -7 -20 -29 -21 -18 -47 -40 -57 -48 -10 -8 -20
-29 -23 -46 -13 -81 -35 -185 -40 -194 -10 -16 10 -18 50 -4 22 7 44 14 50 14
5 0 -21 -30 -58 -68 -37 -37 -67 -75 -67 -84 0 -9 -4 -19 -8 -22 -4 -2 -13 25
-20 62 -14 70 -20 79 -64 88 -15 4 -32 12 -38 19 -8 10 -1 12 36 8 40 -3 45
-2 40 14 -2 10 -10 51 -18 91 l-12 73 -41 12 -40 12 36 5 36 5 -36 183 c-20
100 -38 182 -41 182 -3 0 -16 -53 -29 -117 -12 -65 -25 -129 -28 -142 -5 -22
-4 -23 23 -17 l29 7 -31 -21 c-27 -18 -33 -30 -48 -102 -9 -45 -14 -84 -11
-87 3 -3 25 0 48 6 l42 11 -57 -51 c-36 -33 -59 -62 -62 -79 -3 -15 -12 -65
-21 -110 -9 -46 -18 -87 -19 -93 -1 -11 7 -10 73 10 l44 14 -69 -69 c-68 -69
-78 -87 -90 -165 -11 -74 -42 -83 -124 -35 -28 17 -55 30 -60 30 -5 0 -11 4
-14 8 -2 4 25 6 61 4 l65 -4 -6 39 c-8 54 -42 213 -47 217 -2 2 -29 13 -59 24
l-55 21 53 0 54 1 -7 41 c-19 111 -28 132 -65 145 -32 11 -33 13 -10 14 14 1
28 2 33 1 4 0 7 2 7 6 0 18 -74 382 -77 379 -2 -2 -6 -16 -9 -32 -2 -16 -9
-49 -14 -74 -5 -25 -12 -56 -14 -70 -4 -25 -14 -72 -22 -101 -4 -13 1 -15 23
-12 l28 4 -27 -15 c-26 -16 -33 -28 -42 -76 -2 -14 -9 -44 -14 -68 -5 -23 -7
-44 -2 -47 4 -2 22 0 40 5 19 5 35 8 37 6 3 -2 -73 -67 -95 -82 -6 -4 -54
-245 -50 -250 3 -2 24 3 48 11 23 8 47 15 52 15 5 0 -21 -31 -59 -69 -37 -38
-69 -73 -70 -77 0 -5 -4 -25 -7 -44 -3 -19 -10 -52 -15 -72 -5 -20 -7 -39 -5
-41 7 -7 -18 -23 -76 -46 -73 -30 -340 -164 -336 -168 2 -2 78 19 170 47 265
80 554 149 811 195 38 7 147 22 205 30 25 3 63 7 85 10 22 3 137 8 255 11 118
3 221 7 228 9 6 3 12 15 12 27 0 13 16 40 35 62 40 44 43 51 15 34 -10 -7 -22
-9 -26 -6 -13 14 17 113 43 140 24 26 25 27 4 21 -21 -5 -22 -3 -15 33 3 22 9
43 12 48 3 5 7 23 8 40 2 17 6 40 8 51 3 11 5 28 5 38 2 40 19 4 31 -65 13
-76 12 -95 -5 -90 -5 1 -2 -4 9 -12 10 -8 22 -34 26 -56 7 -40 7 -42 -16 -37
-13 2 -21 0 -18 -4 3 -5 11 -9 18 -9 21 0 35 -23 41 -66 4 -21 9 -48 12 -58 5
-17 1 -18 -26 -13 -40 8 -39 4 3 -21 21 -13 35 -30 39 -49 5 -28 9 -30 83 -41
l77 -12 46 42 c25 24 56 55 69 70 l23 27 -56 -19 -56 -19 5 27 c4 15 9 40 12
57 24 136 36 171 62 191 15 12 40 34 57 48 l29 25 -52 -13 c-29 -8 -50 -11
-48 -8 2 4 7 23 10 42 18 114 26 137 59 153 l32 16 -32 -6 -32 -5 19 85 c10
47 22 104 25 127 14 95 21 83 58 -102 20 -100 37 -186 37 -190 0 -5 -15 -8
-32 -9 l-33 -1 35 -15 c19 -8 36 -16 37 -17 3 -3 33 -151 33 -164 0 -10 -13
-12 -51 -9 -60 6 -54 -3 16 -28 l50 -17 23 -122 c12 -66 22 -125 22 -129 0 -4
-27 -5 -60 -2 -33 3 -60 4 -60 1 0 -2 31 -22 70 -42 52 -29 71 -44 75 -64 5
-23 19 -31 113 -64 289 -103 557 -242 919 -478 400 -260 784 -377 1264 -383
97 -1 205 2 240 6 35 4 87 10 114 13 69 7 118 15 200 33 39 8 81 17 95 19 142
27 412 128 586 218 105 55 289 167 304 185 3 3 31 25 62 48 31 24 68 53 81 65
13 13 53 51 89 84 67 64 178 187 178 197 0 3 -28 -10 -62 -29 -202 -112 -492
-241 -705 -313 -118 -40 -123 -41 -140 -24 -10 10 -30 26 -43 35 l-25 17 32
-5 31 -6 -9 43 c-5 24 -12 54 -14 67 -3 13 -16 27 -28 32 -19 7 -19 9 -3 9 16
1 18 7 13 42 -3 22 -14 47 -24 56 -10 8 -12 12 -5 8 15 -7 16 22 2 80 -5 22
-11 53 -14 69 -6 35 -16 46 -17 20 0 -10 -3 -30 -6 -44 -3 -14 -6 -38 -7 -55
0 -16 -4 -32 -8 -35 -4 -3 -10 -25 -14 -49 -7 -42 -6 -43 17 -37 l24 7 -26
-23 c-30 -26 -36 -41 -45 -103 -6 -48 -4 -51 29 -34 15 8 10 -1 -15 -27 -27
-29 -38 -51 -43 -87 -8 -50 -23 -71 -31 -41 -3 11 -32 34 -65 52 -32 18 -59
34 -59 36 0 1 23 0 50 -4 28 -4 52 -5 54 -3 2 2 -5 38 -15 81 -11 42 -19 86
-19 98 0 15 -13 26 -47 42 l-48 21 38 -4 c34 -5 37 -3 37 19 0 14 -5 47 -11
74 -10 43 -16 51 -43 60 l-31 10 32 1 c31 1 31 2 22 34 -5 17 -16 70 -25 117
-9 47 -18 92 -19 100 -2 8 -4 24 -4 34 -1 22 -14 14 -18 -12 -1 -9 -11 -59
-22 -110 l-19 -94 22 6 c20 5 20 4 -2 -13 -16 -12 -27 -34 -33 -67 -5 -27 -12
-57 -15 -67 -5 -16 -1 -18 33 -12 41 7 41 8 -20 -41 -21 -17 -30 -39 -47 -119
-11 -54 -19 -99 -18 -101 2 -1 21 4 43 11 21 8 40 13 42 11 1 -1 -22 -27 -52
-56 -32 -32 -55 -48 -56 -40 0 8 -2 22 -4 30 -2 8 -11 51 -20 95 -9 44 -18 80
-18 81 -1 0 -18 7 -37 16 -19 8 -46 19 -60 25 -21 10 -18 11 24 7 26 -2 51 -2
56 1 4 2 0 41 -9 87 -16 80 -17 82 -56 99 l-39 18 35 3 35 3 -18 90 c-10 50
-23 115 -28 145 -5 30 -14 69 -19 87 -5 17 -7 34 -3 37 3 3 1 6 -5 6 -5 0 -17
-39 -27 -87 -9 -49 -19 -97 -22 -108 -19 -90 -19 -88 12 -81 l29 8 -34 -24
c-20 -14 -36 -33 -38 -48 -2 -14 -8 -49 -14 -77 -10 -53 -6 -78 12 -67 5 3 24
10 42 15 30 8 28 6 -26 -44 -33 -30 -60 -63 -62 -77 -3 -14 -13 -67 -23 -118
-10 -51 -17 -94 -15 -96 2 -2 26 5 54 15 27 10 49 16 49 13 0 -4 -27 -33 -61
-66 -33 -33 -64 -71 -70 -85 -9 -25 -11 -25 -75 -19 -123 12 -297 48 -428 88
-39 12 -73 22 -76 23 -3 1 -14 5 -25 9 -169 64 -231 91 -345 149 -74 38 -207
106 -295 151 -241 123 -615 265 -793 301 -62 12 -111 28 -107 35 3 5 67 51
142 104 197 138 178 119 155 153 -11 15 -55 83 -98 151 -44 67 -111 171 -150
231 l-72 109 31 39 c17 21 34 40 37 43 3 3 40 49 83 102 l78 96 -71 170 -72
170 -97 -45 c-53 -25 -130 -61 -171 -80 -141 -66 -245 -115 -285 -135 -86 -42
-92 -41 -39 9 28 26 132 125 230 220 372 356 368 352 384 340 26 -21 675 -561
686 -572 6 -5 31 -26 55 -46 60 -49 289 -240 314 -261 11 -9 189 -157 395
-329 206 -172 444 -370 528 -441 83 -70 155 -128 160 -128 4 0 2 4 -5 8 -9 6
-180 167 -368 347 -17 17 -59 56 -93 88 l-61 58 37 -5 c20 -3 60 -7 87 -10 28
-4 70 -9 95 -12 25 -3 63 -7 85 -9 22 -3 56 -7 75 -9 19 -3 94 -12 165 -21 72
-9 142 -17 158 -19 34 -5 28 6 -15 28 -18 9 -51 27 -73 40 -22 14 -60 36 -85
49 -25 14 -139 79 -255 145 -115 66 -211 116 -213 112 -2 -4 4 -38 13 -75 8
-36 15 -69 15 -72 0 -5 -107 86 -214 182 -6 6 -43 38 -83 73 l-71 62 -89 -6
c-48 -3 -91 -8 -94 -10 -3 -2 -30 22 -60 53 -30 31 -49 53 -44 50 6 -3 31 -8
55 -11 25 -3 61 -8 80 -11 19 -2 58 -7 85 -10 28 -3 61 -8 75 -10 14 -2 49 -7
79 -10 30 -4 63 -9 75 -11 12 -2 48 -7 81 -10 33 -4 63 -8 66 -10 4 -2 2 18
-3 44 -4 26 -11 58 -13 72 -21 109 -26 143 -23 146 2 1 17 -9 33 -24 17 -15
57 -47 90 -72 33 -24 66 -50 75 -56 47 -39 134 -107 194 -154 38 -29 76 -59
85 -66 24 -19 190 -150 421 -329 113 -88 214 -167 225 -177 101 -83 315 -246
315 -239 0 5 -4 11 -9 13 -5 2 -49 39 -97 83 -144 130 -328 299 -340 310 -6 5
-48 44 -94 85 -46 41 -93 84 -104 95 -12 11 -61 56 -110 100 -49 44 -99 89
-111 100 -12 11 -46 42 -76 69 -29 28 -79 73 -109 100 -30 28 -97 89 -149 136
-52 47 -99 90 -105 95 -6 6 -56 51 -111 100 -55 50 -102 93 -105 96 -3 3 -31
29 -63 58 l-58 52 -37 -32 c-20 -18 -71 -63 -112 -100 -41 -37 -84 -76 -96
-86 -26 -22 -192 -173 -210 -190 -19 -20 -24 -17 -94 43 -36 31 -89 77 -119
103 -30 25 -59 51 -65 56 -6 6 -60 53 -121 105 -60 52 -112 97 -115 100 -3 3
-47 41 -99 85 -51 44 -106 91 -121 105 -15 14 -50 44 -76 66 -27 23 -67 58
-89 78 -22 19 -42 36 -45 36 -3 0 -299 -294 -658 -653z m3061 -1906 c4 -1 7
-12 7 -26 0 -28 -9 -26 -75 12 l-40 24 50 -5 c28 -2 53 -5 58 -5z"/>
<path d="M3662 4330 c3 -8 40 -102 83 -208 85 -214 84 -191 13 -267 -21 -22
-38 -45 -38 -52 0 -12 269 -187 276 -180 5 5 17 84 18 115 0 12 3 22 7 22 3 0
32 -65 64 -145 32 -80 61 -148 65 -150 4 -3 144 -48 311 -100 167 -53 323
-102 347 -110 23 -7 42 -12 42 -11 0 2 -51 36 -112 77 -342 222 -398 260 -399
272 0 6 -2 21 -4 32 -3 11 -7 47 -11 80 -4 33 -8 69 -10 80 -1 11 -3 27 -3 36
-1 12 -339 284 -640 513 -12 9 -14 8 -9 -4z"/>
<path d="M1397 3234 c-1 0 -56 -4 -122 -8 -193 -10 -301 -24 -505 -66 -58 -12
-118 -24 -135 -27 -63 -11 -36 -15 50 -7 112 10 452 11 565 2 82 -7 214 -24
262 -34 13 -2 37 -7 53 -10 132 -23 344 -87 505 -151 183 -72 363 -168 639
-338 37 -23 186 -126 331 -229 589 -418 774 -513 1150 -592 105 -22 361 -22
470 0 8 1 33 6 55 10 116 23 298 76 390 115 109 47 125 54 122 57 -2 2 -19 -1
-38 -6 -19 -6 -47 -12 -64 -15 -16 -2 -41 -7 -55 -9 -105 -21 -186 -28 -325
-31 -139 -3 -202 1 -315 19 -275 43 -534 154 -840 359 -41 28 -190 134 -330
237 -383 280 -563 396 -762 490 -210 98 -440 171 -639 200 -41 6 -85 13 -99
16 -47 7 -356 23 -363 18z"/>
</g>
</svg>
